<svg xmlns="http://www.w3.org/2000/svg" viewBox="0 0 264.62 248.95"><defs><style>.cls-1{fill:#fff;stroke:#231815;stroke-miterlimit:10;}.cls-2{font-size:12px;fill:#231815;font-family:AdobeSongStd-Light-GBpc-EUC-H, Adobe Song Std;}</style></defs><title>icon-Intro</title><g id="图层_2" data-name="图层 2"><g id="图层_1-2" data-name="图层 1"><polygon class="cls-1" points="262.78 127.62 1.83 127.62 132.31 204.51 262.78 127.62"/><polygon class="cls-1" points="212.3 0.5 32.38 0.5 32.38 242.16 229.03 242.16 229.03 15.44 212.3 15.44 212.3 0.5"/><line class="cls-1" x1="59.97" y1="31.58" x2="201.43" y2="31.58"/><line class="cls-1" x1="59.97" y1="61.58" x2="201.43" y2="61.58"/><line class="cls-1" x1="59.97" y1="91.58" x2="201.43" y2="91.58"/><line class="cls-1" x1="59.97" y1="121.33" x2="201.43" y2="121.33"/><line class="cls-1" x1="59.97" y1="151.08" x2="201.43" y2="151.08"/><line class="cls-1" x1="59.97" y1="180.83" x2="201.43" y2="180.83"/><line class="cls-1" x1="59.97" y1="210.59" x2="201.43" y2="210.59"/><text class="cls-2" transform="translate(61.43 26)">Dear users,<tspan x="0" y="32">This is the thank-you message</tspan><tspan x="0" y="64">from Techzjc Message Board.</tspan><tspan x="0" y="93">Thanks for visiting our </tspan><tspan x="0" y="122">Techzjc message box! </tspan><tspan x="73.11" y="151">Jiacheng Zhao</tspan><tspan x="22.37" y="180">Developer of the product</tspan></text><polygon class="cls-1" points="132.31 204.51 1.83 127.62 1.83 248.45 262.78 248.45 262.78 127.62 161.81 187.12 132.31 204.51"/><line class="cls-1" x1="1.83" y1="248.45" x2="102.8" y2="187.12"/><line class="cls-1" x1="262.78" y1="248.45" x2="161.81" y2="187.12"/><line class="cls-1" x1="212.3" y1="0.5" x2="229.03" y2="15.44"/></g></g></svg>